<svg xmlns="http://www.w3.org/2000/svg" x="0px" y="0px" width="100" height="100" viewBox="0 0 172 172" style=" fill:#000000;">
	<g fill="none" fill-rule="nonzero" stroke="none" stroke-width="1" stroke-linecap="butt" stroke-linejoin="miter" stroke-miterlimit="10" stroke-dasharray="" stroke-dashoffset="0" font-family="none" font-weight="none" font-size="none" text-anchor="none" style="mix-blend-mode: normal">
		<path d="M0,172v-172h172v172z" fill="none">
		</path>
		<g fill="#3498db">
			<path d="M46.44,32.68c-11.3786,0 -20.64,9.2614 -20.64,20.64v65.36c0,11.3786 9.2614,20.64 20.64,20.64h79.12c11.3786,0 20.64,-9.2614 20.64,-20.64v-65.36c0,-11.3786 -9.2614,-20.64 -20.64,-20.64zM46.44,36.12h79.12c9.5194,0 17.2,7.6806 17.2,17.2v65.36c0,9.5194 -7.6806,17.2 -17.2,17.2h-79.12c-9.5194,0 -17.2,-7.6806 -17.2,-17.2v-65.36c0,-9.5194 7.6806,-17.2 17.2,-17.2zM46.44,41.28c-6.63954,0 -12.04,5.40046 -12.04,12.04v43.73906c-0.01517,0.09232 -0.01517,0.1865 0,0.27883v21.34211c0,6.63954 5.40046,12.04 12.04,12.04h69.53906c0.09232,0.01517 0.1865,0.01517 0.27883,0h9.30211c6.63954,0 12.04,-5.40046 12.04,-12.04v-7.57539c0.01667,-0.09671 0.01667,-0.19556 0,-0.29227v-18.79234c0.00439,-0.31015 -0.15856,-0.59863 -0.42645,-0.75498c-0.26789,-0.15635 -0.59921,-0.15635 -0.8671,0c-0.26789,0.15635 -0.43084,0.44484 -0.42645,0.75498v16.84391l-21.39922,-21.39922c-0.97495,-0.97495 -2.26117,-1.46469 -3.54078,-1.46469c-1.27961,0 -2.56583,0.48974 -3.54078,1.46469l-16.23922,16.23922l-28.27922,-28.27922c-0.97495,-0.97495 -2.26117,-1.46469 -3.54078,-1.46469c-1.27961,0 -2.56583,0.48974 -3.54078,1.46469l-19.67922,19.67922v-41.78391c0,-5.71006 4.60994,-10.32 10.32,-10.32h71.38c0.31015,0.00439 0.59863,-0.15856 0.75498,-0.42645c0.15635,-0.26789 0.15635,-0.59921 0,-0.8671c-0.15635,-0.26789 -0.44484,-0.43084 -0.75498,-0.42645zM114.38,55.04c-3.08167,0 -5.50069,1.18659 -7.09164,2.97641c-1.59095,1.78982 -2.36836,4.14248 -2.36836,6.48359c0,2.34111 0.77741,4.69378 2.36836,6.48359c1.59095,1.78982 4.00998,2.97641 7.09164,2.97641c5.21443,0 9.46,-4.24557 9.46,-9.46c0,-5.21443 -4.24557,-9.46 -9.46,-9.46zM114.38,56.76c4.28487,0 7.74,3.45513 7.74,7.74c0,4.28487 -3.45513,7.74 -7.74,7.74c-2.65167,0 -4.53264,-0.96341 -5.80836,-2.39859c-1.27572,-1.43518 -1.93164,-3.38252 -1.93164,-5.34141c0,-1.95889 0.65592,-3.90622 1.93164,-5.34141c1.27572,-1.43518 3.15669,-2.39859 5.80836,-2.39859zM136.72656,70.50656c-0.22809,0.00356 -0.44542,0.09758 -0.60418,0.26138c-0.15876,0.1638 -0.24595,0.38397 -0.24238,0.61205v3.44c-0.00439,0.31015 0.15856,0.59863 0.42645,0.75498c0.26789,0.15635 0.59921,0.15635 0.8671,0c0.26789,-0.15635 0.43084,-0.44484 0.42645,-0.75498v-3.44c0.00364,-0.23275 -0.08721,-0.45703 -0.25181,-0.62163c-0.1646,-0.1646 -0.38888,-0.25545 -0.62163,-0.25181zM59.34,75.68c0.84287,0 1.6794,0.31549 2.32469,0.96078l28.76633,28.76633c0.06522,0.09788 0.14983,0.18135 0.24859,0.24523l23.3443,23.34766h-67.58391c-5.71006,0 -10.32,-4.60994 -10.32,-10.32v-21.14391l20.89531,-20.89531c0.64529,-0.64529 1.48181,-0.96078 2.32469,-0.96078zM136.72656,79.10656c-0.22809,0.00356 -0.44542,0.09758 -0.60418,0.26138c-0.15876,0.1638 -0.24595,0.38397 -0.24238,0.61205v6.88c-0.00439,0.31015 0.15856,0.59863 0.42645,0.75498c0.26789,0.15635 0.59921,0.15635 0.8671,0c0.26789,-0.15635 0.43084,-0.44484 0.42645,-0.75498v-6.88c0.00364,-0.23275 -0.08721,-0.45703 -0.25181,-0.62163c-0.1646,-0.1646 -0.38888,-0.25545 -0.62163,-0.25181zM110.94,87.72c0.84287,0 1.6794,0.31549 2.32469,0.96078l22.61531,22.61531v7.38391c0,5.71006 -4.60994,10.32 -10.32,10.32h-9.10391l-24.08,-24.08l16.23922,-16.23922c0.64529,-0.64529 1.48181,-0.96078 2.32469,-0.96078z">
			</path>
		</g>
	</g>
</svg>
